<svg width="111" height="23" viewBox="0 0 111 23" fill="none" xmlns="http://www.w3.org/2000/svg">
<path d="M18.9199 10.632C18.9199 7.752 17.2159 5.856 14.4319 5.856C12.7999 5.856 11.4079 6.504 10.4719 7.56C9.67991 6.432 8.50391 5.856 6.94391 5.856C5.57591 5.856 4.37591 6.336 3.58391 7.176V6.12H0.60791V18H3.84791V11.088C3.84791 9.672 4.71191 8.784 6.03191 8.784C7.30391 8.784 8.14391 9.672 8.14391 11.088V18H11.3839V11.016C11.3839 9.696 12.2959 8.784 13.5679 8.784C14.8399 8.784 15.6799 9.672 15.6799 11.088V18H18.9199V10.632Z" fill="white"/>
<path d="M21.4863 12.768C21.4863 16.08 23.8143 18.288 26.9823 18.288C30.0783 18.288 32.4303 16.08 32.4303 12.768V6.12H29.1903V13.032C29.1903 14.4 28.2303 15.312 26.9823 15.312C25.6623 15.312 24.7263 14.4 24.7263 13.032V6.12H21.4863V12.768Z" fill="white"/>
<path d="M35.1282 18H38.3682V0H35.1282V18Z" fill="white"/>
<path d="M48.8055 15.288C47.9655 15.36 47.4615 15.384 47.2695 15.384C45.7335 15.384 45.0615 14.88 45.0615 13.536V8.856H48.4215V6.12H45.0615V3.12H41.8215V6.12H39.9495V8.856H41.8215V13.824C41.8215 16.8 43.5735 18.288 46.5735 18.288C47.2935 18.288 48.0375 18.192 48.8055 18V15.288Z" fill="white"/>
<path d="M50.7579 18H53.9979V6.12H50.7579V18Z" fill="white"/>
<path d="M72.0672 6.12L69.3072 12.744L66.0192 5.856H64.9392L61.6992 12.888L58.8912 6.12H55.4832L61.0032 18.288H62.0592L65.4912 11.376L68.8992 18.288H69.9552L75.4752 6.12H72.0672Z" fill="white"/>
<path d="M86.4726 10.944C86.4726 7.656 84.4806 5.856 81.3846 5.856C79.2966 5.856 77.5686 6.672 76.2006 8.304L77.8806 10.296C78.9366 9.168 79.8006 8.664 81.0246 8.664C82.4646 8.664 83.2326 9.432 83.2326 10.752V11.28H80.2566C77.4966 11.28 75.7686 12.6 75.7686 14.736C75.7686 16.824 77.3526 18.288 79.8726 18.288C81.3846 18.288 82.6326 17.736 83.4966 16.848V18H86.4726V10.944ZM83.2326 13.56C83.2326 14.928 82.1526 15.912 80.7366 15.912C79.7046 15.912 79.0326 15.408 79.0326 14.616C79.0326 13.824 79.6326 13.416 80.6886 13.416H83.2326V13.56Z" fill="white"/>
<path d="M97.3027 6.12L94.2067 13.92L91.3027 6.12H87.8707L92.4307 17.28L92.0707 18.096C91.5187 19.344 90.7507 19.704 89.5987 19.704C89.4067 19.704 88.9507 19.68 88.2067 19.608V22.32C88.9267 22.512 89.6227 22.608 90.2947 22.608C92.5027 22.608 93.9427 21.504 95.0227 19.032L100.711 6.12H97.3027Z" fill="white"/>
<path d="M100.765 15.984C101.845 17.424 103.597 18.288 105.685 18.288C107.029 18.288 108.133 17.952 108.997 17.28C109.885 16.608 110.317 15.672 110.317 14.496C110.317 12.744 109.285 11.808 106.981 10.872L105.829 10.392C104.893 10.008 104.581 9.792 104.581 9.336C104.581 8.784 105.061 8.496 105.853 8.496C106.837 8.496 107.725 8.88 108.517 9.624L110.149 7.632C109.069 6.456 107.653 5.856 105.877 5.856C103.285 5.856 101.509 7.176 101.509 9.408C101.509 11.16 102.565 12.144 104.749 13.032L106.021 13.56C106.909 13.944 107.245 14.136 107.245 14.64C107.245 15.288 106.597 15.624 105.733 15.624C104.557 15.624 103.429 15.096 102.397 14.016L100.765 15.984Z" fill="white"/>
</svg>
