<svg width="108" height="18" viewBox="0 0 108 18" fill="none" xmlns="http://www.w3.org/2000/svg">
<path d="M0.402735 0.799999H7.60273V3.24H3.70273V17H0.402735V0.799999ZM14.2685 17.22C12.5485 17.22 11.3285 16.76 10.6085 15.84C9.88852 14.9067 9.52852 13.5667 9.52852 11.82V6.02C9.52852 4.23333 9.88185 2.88667 10.5885 1.98C11.3085 1.06 12.5352 0.599999 14.2685 0.599999C15.9218 0.599999 17.0885 1.00667 17.7685 1.82C18.4618 2.62 18.8085 3.77333 18.8085 5.28V6.64H15.6085V5.14C15.6085 4.66 15.5818 4.27333 15.5285 3.98C15.4885 3.68667 15.3685 3.44667 15.1685 3.26C14.9818 3.06 14.6885 2.96 14.2885 2.96C13.6885 2.96 13.3018 3.15333 13.1285 3.54C12.9552 3.92667 12.8685 4.49333 12.8685 5.24V12.6C12.8685 13.36 12.9685 13.9267 13.1685 14.3C13.3685 14.6733 13.7418 14.86 14.2885 14.86C14.8485 14.86 15.2085 14.6733 15.3685 14.3C15.5285 13.9133 15.6085 13.3467 15.6085 12.6V11.02H18.8085V12.36C18.8085 13.9067 18.4685 15.1067 17.7885 15.96C17.1085 16.8 15.9352 17.22 14.2685 17.22ZM21.3032 0.799999H30.8432V17H27.5832V3.16H24.5432V17H21.3032V0.799999ZM33.7363 9.2H38.7563V11.18H33.7363V9.2ZM46.1577 17.22C44.4377 17.22 43.2177 16.76 42.4977 15.84C41.7777 14.9067 41.4177 13.5667 41.4177 11.82V6.02C41.4177 4.23333 41.7711 2.88667 42.4777 1.98C43.1977 1.06 44.4244 0.599999 46.1577 0.599999C47.8111 0.599999 48.9777 1.00667 49.6577 1.82C50.3511 2.62 50.6977 3.77333 50.6977 5.28V6.64H47.4977V5.14C47.4977 4.66 47.4711 4.27333 47.4177 3.98C47.3777 3.68667 47.2577 3.44667 47.0577 3.26C46.8711 3.06 46.5777 2.96 46.1777 2.96C45.5777 2.96 45.1911 3.15333 45.0177 3.54C44.8444 3.92667 44.7577 4.49333 44.7577 5.24V12.6C44.7577 13.36 44.8577 13.9267 45.0577 14.3C45.2577 14.6733 45.6311 14.86 46.1777 14.86C46.7377 14.86 47.0977 14.6733 47.2577 14.3C47.4177 13.9133 47.4977 13.3467 47.4977 12.6V11.02H50.6977V12.36C50.6977 13.9067 50.3577 15.1067 49.6777 15.96C48.9977 16.8 47.8244 17.22 46.1577 17.22ZM53.1924 0.799999H60.2524V3.08H56.4724V7.38H59.3924V9.68H56.4724V14.76H60.2924V17H53.1924V0.799999ZM62.4615 0.799999H67.6015C70.4015 0.799999 71.8015 2.35333 71.8015 5.46C71.8015 7.1 71.4015 8.26667 70.6015 8.96C69.8015 9.64 68.6882 9.98 67.2615 9.98H65.7415V17H62.4615V0.799999ZM66.9215 7.66C67.6282 7.66 68.1015 7.49333 68.3415 7.16C68.5815 6.82667 68.7015 6.24 68.7015 5.4C68.7015 4.85333 68.6615 4.42667 68.5815 4.12C68.5015 3.8 68.3282 3.55333 68.0615 3.38C67.8082 3.20667 67.4215 3.12 66.9015 3.12H65.7415V7.66H66.9215ZM73.9571 0.799999H78.0771C79.6504 0.799999 80.8704 1.10667 81.7371 1.72C82.6038 2.32 83.0371 3.41333 83.0371 5C83.0371 5.96 82.8304 6.72 82.4171 7.28C82.0171 7.82667 81.4371 8.16667 80.6771 8.3C81.6238 8.43333 82.3304 8.83333 82.7971 9.5C83.2771 10.1667 83.5171 11.08 83.5171 12.24C83.5171 15.4133 81.9438 17 78.7971 17H73.9571V0.799999ZM78.0771 7.34C78.8771 7.34 79.4238 7.16 79.7171 6.8C80.0104 6.44 80.1571 5.86667 80.1571 5.08C80.1571 4.36 79.9704 3.84667 79.5971 3.54C79.2238 3.22 78.6438 3.06 77.8571 3.06H77.2371V7.34H78.0771ZM78.1771 14.68C78.9771 14.68 79.5371 14.48 79.8571 14.08C80.1904 13.68 80.3571 13.0467 80.3571 12.18C80.3571 11.2467 80.1838 10.58 79.8371 10.18C79.5038 9.76667 78.9304 9.56 78.1171 9.56H77.2371V14.68H78.1771ZM85.981 0.799999H88.621V10.5L92.901 0.799999H95.061V17H92.381V7.14L88.061 17H85.981V0.799999ZM102.523 17.22C100.803 17.22 99.5826 16.76 98.8626 15.84C98.1426 14.9067 97.7826 13.5667 97.7826 11.82V6.02C97.7826 4.23333 98.1359 2.88667 98.8426 1.98C99.5626 1.06 100.789 0.599999 102.523 0.599999C104.176 0.599999 105.343 1.00667 106.023 1.82C106.716 2.62 107.063 3.77333 107.063 5.28V6.64H103.863V5.14C103.863 4.66 103.836 4.27333 103.783 3.98C103.743 3.68667 103.623 3.44667 103.423 3.26C103.236 3.06 102.943 2.96 102.543 2.96C101.943 2.96 101.556 3.15333 101.383 3.54C101.209 3.92667 101.123 4.49333 101.123 5.24V12.6C101.123 13.36 101.223 13.9267 101.423 14.3C101.623 14.6733 101.996 14.86 102.543 14.86C103.103 14.86 103.463 14.6733 103.623 14.3C103.783 13.9133 103.863 13.3467 103.863 12.6V11.02H107.063V12.36C107.063 13.9067 106.723 15.1067 106.043 15.96C105.363 16.8 104.189 17.22 102.523 17.22Z" fill="white"/>
</svg>
