<svg width="16" height="16" viewBox="0 0 16 16" fill="none" xmlns="http://www.w3.org/2000/svg">
<path d="M12.569 3.01703L0.254324 7.12149C0.190587 7.14262 0.134886 7.18283 0.0947714 7.23668C0.0546568 7.29053 0.0320669 7.3554 0.0300655 7.42252C0.0280642 7.48964 0.0467481 7.55575 0.0835829 7.61189C0.120418 7.66803 0.173623 7.71149 0.235988 7.73638L5.95461 10.0237L8.85223 15.8189C8.88171 15.8779 8.92834 15.9267 8.98599 15.9587C9.04364 15.9908 9.10964 16.0047 9.17533 15.9986C9.24101 15.9925 9.30333 15.9667 9.35411 15.9246C9.40489 15.8825 9.44177 15.826 9.45991 15.7626L12.9875 3.41713C13.0038 3.35977 13.0042 3.29905 12.9885 3.2415C12.9729 3.18395 12.9418 3.13177 12.8987 3.09059C12.8555 3.04941 12.802 3.0208 12.7438 3.00783C12.6856 2.99487 12.6256 2.99805 12.569 3.01703Z" fill="white"/>
</svg>
